<?xml version="1.0" encoding="UTF-8" standalone="no"?>
<!-- Created with Inkscape (http://www.inkscape.org/) -->

<svg
   width="256"
   height="256"
   viewBox="0 0 67.733332 67.733335"
   version="1.1"
   id="svg5"
   inkscape:version="1.1.1 (3bf5ae0d25, 2021-09-20)"
   sodipodi:docname="skull.svg"
   xmlns:inkscape="http://www.inkscape.org/namespaces/inkscape"
   xmlns:sodipodi="http://sodipodi.sourceforge.net/DTD/sodipodi-0.dtd"
   xmlns="http://www.w3.org/2000/svg"
   xmlns:svg="http://www.w3.org/2000/svg">
  <sodipodi:namedview
     id="namedview7"
     pagecolor="#505050"
     bordercolor="#eeeeee"
     borderopacity="1"
     inkscape:pageshadow="0"
     inkscape:pageopacity="0"
     inkscape:pagecheckerboard="0"
     inkscape:document-units="mm"
     showgrid="true"
     units="px"
     width="256px"
     showguides="true"
     inkscape:zoom="2"
     inkscape:cx="251.25"
     inkscape:cy="13.75"
     inkscape:window-width="2560"
     inkscape:window-height="1440"
     inkscape:window-x="1920"
     inkscape:window-y="0"
     inkscape:window-maximized="1"
     inkscape:current-layer="layer1">
    <inkscape:grid
       type="xygrid"
       id="grid450" />
  </sodipodi:namedview>
  <defs
     id="defs2" />
  <g
     inkscape:groupmode="layer"
     id="layer2"
     inkscape:label="Layer 2">
    <ellipse
       style="fill:#ffffff;stroke-width:0.272068"
       id="path368"
       cx="33.868931"
       cy="33.867481"
       rx="33.867764"
       ry="33.86681" />
  </g>
  <g
     inkscape:label="Layer 1"
     inkscape:groupmode="layer"
     id="layer1">
    <g
       id="g29"
       transform="matrix(0.13229167,0,0,0.13229167,0.26458333,-1.2544334)">
      <path
         d="m 448,225.64 v 99 a 64,64 0 0 1 -40.23,59.42 l -23.68,9.47 A 32,32 0 0 0 364.6,417 l -10,50.14 A 16,16 0 0 1 338.88,480 H 173.12 A 16,16 0 0 1 157.43,467.14 L 147.4,417 a 32,32 0 0 0 -19.49,-23.44 l -23.68,-9.47 A 64,64 0 0 1 64,324.67 V 224 C 64,118.08 149.77,32.19 255.65,32 361.53,31.81 448,119.85 448,225.64 Z"
         fill="none"
         stroke="currentColor"
         stroke-linecap="round"
         stroke-miterlimit="10"
         stroke-width="32"
         id="path11" />
      <circle
         cx="168"
         cy="280"
         r="40"
         fill="none"
         stroke="currentColor"
         stroke-linecap="round"
         stroke-miterlimit="10"
         stroke-width="32"
         id="circle13" />
      <circle
         cx="344"
         cy="280"
         r="40"
         fill="none"
         stroke="currentColor"
         stroke-linecap="round"
         stroke-miterlimit="10"
         stroke-width="32"
         id="circle15" />
      <path
         fill="none"
         stroke="currentColor"
         stroke-linecap="round"
         stroke-linejoin="round"
         stroke-width="32"
         d="m 256,336 -16,48 h 32 z m 0,112 v 32 m -48,-32 v 32 m 96,-32 v 32"
         id="path17" />
    </g>
  </g>
</svg>
